<svg xmlns:xlink="http://www.w3.org/1999/xlink"  width="28" height="28" xmlns="http://www.w3.org/2000/svg"><g fill="none" fill-rule="evenodd"><path d="M28 14a3.5 3.5 0 10-7 0 3.5 3.5 0 007 0" fill="#D1D5DB"></path><path d="M23.865 23.9a13.932 13.932 0 01-6.377 3.66c-1.115.286-2.284.44-3.488.44a13.893 13.893 0 01-10.512-4.797A13.968 13.968 0 01.048 14c0-3.523 1.298-6.742 3.44-9.203A13.893 13.893 0 0114 0c1.204 0 2.373.154 3.488.44a13.932 13.932 0 016.377 3.66l-4.933 4.95A6.942 6.942 0 0014 7c-3.852 0-6.976 3.134-6.976 7l.002.18C7.122 17.964 10.208 21 14 21c1.926 0 3.67-.784 4.932-2.05l4.933 4.95z" fill="#7E5FFB" fill-rule="nonzero"></path></g></svg>